<svg width="490" height="452" viewBox="0 0 490 452" fill="none" xmlns="http://www.w3.org/2000/svg">
<path d="M244.67 207.4L244.78 207.14H244.56L244.67 207.4Z" fill="black"/>
<path d="M244.67 207.4L244.78 207.14H244.56L244.67 207.4Z" fill="black"/>
<path d="M244.67 313.28L209.17 228.51H93.39L93.28 228.77L151.17 367.01L186.56 451.51H186.78H302.56L244.67 313.28Z" fill="white"/>
<path d="M395.95 228.51H280.17L244.67 313.28L302.56 451.51H302.78L338.17 367.01L396.06 228.78L395.95 228.51Z" fill="#1B242F"/>
<path d="M338.17 367.01L373.56 451.51H489.34L396.06 228.78L338.17 367.01Z" fill="white"/>
<path d="M0 451.51H115.78L151.17 367.01L93.28 228.77L0 451.51Z" fill="#1B242F"/>
<path d="M334.83 81.84L300.56 0H188.78L244.67 133.45L278.94 215.29H390.71L334.83 81.84Z" fill="white"/>
<path d="M188.78 0L154.51 81.84L98.62 215.29H210.4L244.67 133.45L188.78 0Z" fill="#1B242F"/>
</svg>
